<svg width="60" height="60" viewBox="0 0 2160 2160" xmlns="http://www.w3.org/2000/svg">
  <defs>
    <clipPath id="readme-circle-clip">
      <circle cx="1080" cy="1080" r="1050" />
    </clipPath>
  </defs>
  <circle cx="1080" cy="1080" r="1050" fill="#004208" />
  <g clip-path="url(#readme-circle-clip)">
    <path d="M0 0 C1.04496769 -0.00088371 1.04496769 -0.00088371 2.11104584 -0.00178528 C26.80687767 -0.01645 51.33340947 0.77872483 75.93841553 3.02215576 C78.42679095 3.24902364 80.91571562 3.46888242 83.40478516 3.68798828 C124.03107644 7.31311903 164.11331544 14.22815205 203.75 23.8125 C204.51265167 23.99632233 205.27530334 24.18014465 206.06106567 24.36953735 C215.67824973 26.69846205 225.1930201 29.27349993 234.66918945 32.12304688 C238.20759757 33.18124525 241.75551391 34.19383802 245.3125 35.1875 C293.11994308 48.85448655 339.23156273 67.46841557 383.9375 89.125 C385.0561293 89.66661774 385.0561293 89.66661774 386.19735718 90.21917725 C394.72857786 94.3590279 403.16864406 98.60042673 411.4375 103.25 C411.4375 103.91 411.4375 104.57 411.4375 105.25 C409.73495942 106.62350348 407.97201383 107.92232545 406.1875 109.1875 C400.48146847 113.32445823 395.32577677 117.86540619 390.19140625 122.68359375 C387.88206745 124.83570097 385.53420367 126.8996572 383.125 128.9375 C379.1549501 132.40418979 375.78622909 136.18644604 372.4375 140.25 C372.00953125 140.76030762 371.5815625 141.27061523 371.140625 141.79638672 C347.2213716 170.3894228 329.11524853 204.64160485 321.4375 241.25 C317.29827911 239.9552002 313.50466215 238.39851454 309.6328125 236.44921875 C307.9465979 235.61148926 307.9465979 235.61148926 306.22631836 234.75683594 C305.33346634 234.31253235 305.33346634 234.31253235 304.4225769 233.85925293 C279.22343031 221.37192666 253.04822704 211.30741613 226.4375 202.25 C225.35742676 201.87955566 224.27735352 201.50911133 223.16455078 201.12744141 C194.67098914 191.42723265 165.54793347 183.54390256 136 177.8125 C135.20050934 177.6569162 134.40101868 177.5013324 133.57730103 177.34103394 C110.97641882 172.98655851 88.22696724 169.66091159 65.3125 167.5 C63.60652649 167.33840897 63.60652649 167.33840897 61.86608887 167.17355347 C34.71781365 164.67162513 7.67295848 164.58933269 -19.5625 165.25 C-20.55290283 165.27276001 -21.54330566 165.29552002 -22.5637207 165.31896973 C-81.91698435 166.72975616 -143.22523015 175.54985628 -199.60302734 194.60888672 C-202.24041755 195.47180557 -204.90331906 196.22728823 -207.57348633 196.98144531 C-241.06219141 206.46652422 -273.26566425 220.14166647 -304.5625 235.25 C-306.13185303 236.00579346 -306.13185303 236.00579346 -307.73291016 236.77685547 C-322.68413163 244.01572479 -337.22319906 251.8674211 -351.5625 260.25 C-352.61179687 260.86311035 -353.66109375 261.4762207 -354.7421875 262.10791016 C-367.00218363 269.30183774 -379.08579585 276.63782341 -390.66015625 284.89648438 C-392.68130079 286.33452664 -394.71437791 287.75440971 -396.75 289.171875 C-414.59608893 301.62828709 -432.07837259 314.65515828 -448.52832031 328.91674805 C-451.94202055 331.87525634 -455.40363792 334.74703141 -458.9375 337.5625 C-463.41871966 341.21185308 -467.66808254 345.05843363 -471.87890625 349.015625 C-472.57354477 349.66793594 -473.26818329 350.32024689 -473.98387146 350.99232483 C-481.13427396 357.73998811 -488.11604827 364.65173703 -495.05688477 371.61401367 C-497.15200092 373.71457104 -499.2525231 375.80961874 -501.35351562 377.90429688 C-502.71646713 379.26790811 -504.07910897 380.63182893 -505.44140625 381.99609375 C-506.36186485 382.91351601 -506.36186485 382.91351601 -507.30091858 383.84947205 C-511.03992685 387.60850769 -514.58978803 391.48854345 -518.05348206 395.50286865 C-519.97436699 397.72685697 -521.95476155 399.89364242 -523.9375 402.0625 C-527.78300182 406.32880589 -531.45981266 410.701693 -535.0703125 415.16796875 C-536.86643609 417.38919369 -538.67258536 419.59900377 -540.4921875 421.80078125 C-574.04560359 462.52074386 -601.89248692 507.15045293 -625.5625 554.25 C-626.10084473 555.31202637 -626.63918945 556.37405273 -627.19384766 557.46826172 C-654.86870502 612.30501191 -672.97905816 671.28665037 -685.5625 731.25 C-685.81032227 732.4265918 -686.05814453 733.60318359 -686.31347656 734.81542969 C-689.96637583 752.66029988 -691.85668512 770.71893677 -693.8125 788.8125 C-693.94360168 790.01837769 -694.07470337 791.22425537 -694.20977783 792.4666748 C-696.61873537 814.82877156 -697.79749994 836.94998214 -697.8125 859.4375 C-697.81350708 860.50338348 -697.81451416 861.56926697 -697.81555176 862.66744995 C-697.7884956 905.73170436 -694.93877735 948.85023384 -686.20800781 991.07324219 C-685.30411643 995.52159116 -684.47169549 999.98254513 -683.63452148 1004.44384766 C-680.57952435 1020.66272045 -676.92726683 1036.480861 -672.15185547 1052.27587891 C-671.27420394 1055.21568432 -670.45195902 1058.17059452 -669.625 1061.125 C-665.32405863 1076.18628062 -660.37866044 1091.00197119 -654.9375 1105.6875 C-654.63503357 1106.5056015 -654.33256714 1107.323703 -654.02093506 1108.16659546 C-623.23225193 1191.22292004 -576.7454049 1269.10702758 -515.07836914 1335.59057617 C-513.97580515 1336.79755434 -512.88838407 1338.0184189 -511.81030273 1339.24731445 C-504.93004487 1347.05096454 -497.588511 1354.37553453 -490.22387695 1361.71899414 C-487.99770138 1363.93979307 -485.77694368 1366.16590966 -483.55664062 1368.39257812 C-482.12011229 1369.82844584 -480.68327389 1371.26400343 -479.24609375 1372.69921875 C-478.59378281 1373.35355392 -477.94147186 1374.0078891 -477.26939392 1374.68205261 C-472.86093705 1379.06848813 -468.28205668 1383.2016656 -463.5625 1387.25 C-462.46833147 1388.20003902 -461.37450736 1389.15047509 -460.28125 1390.1015625 C-447.38178043 1401.2399378 -434.18262327 1412.00303376 -420.5625 1422.25 C-419.53697021 1423.024646 -419.53697021 1423.024646 -418.49072266 1423.81494141 C-406.156579 1433.10689795 -393.51333127 1441.8410136 -380.5625 1450.25 C-379.77407715 1450.76272461 -378.9856543 1451.27544922 -378.17333984 1451.80371094 C-319.80096427 1489.60372832 -254.37732584 1520.78106399 -186.71435547 1537.70751953 C-183.52680526 1538.51109754 -180.35887056 1539.38508076 -177.1875 1540.25 C-175.35083144 1540.73364939 -173.51410609 1541.21709712 -171.67626953 1541.69628906 C-170.152779 1542.0953739 -168.63045376 1542.49891663 -167.10888672 1542.90527344 C-90.73610482 1563.22860178 -10.15297288 1568.01308271 68.3581543 1560.44598389 C71.49201705 1560.15060895 74.62898444 1559.89289383 77.765625 1559.62890625 C105.99550581 1557.09284085 134.16308059 1551.71237462 161.66308594 1544.92333984 C164.32397125 1544.277553 166.99035229 1543.67219275 169.6640625 1543.08203125 C245.04427697 1526.27872068 317.6492233 1492.27957999 382.5 1451 C383.52262939 1450.35063477 384.54525879 1449.70126953 385.59887695 1449.03222656 C391.4981528 1445.24954346 397.22588065 1441.30010506 402.86743164 1437.14306641 C405.19097868 1435.4315832 407.53182723 1433.74997952 409.88671875 1432.08203125 C419.46265473 1425.2720573 428.68224699 1418.14887349 437.73193359 1410.65576172 C440.05076208 1408.74453721 442.39815185 1406.87036743 444.75 1405 C445.5234375 1404.38125 446.296875 1403.7625 447.09375 1403.125 C448.73755278 1401.80995778 450.3835809 1400.4976947 452.03125 1399.1875 C457.78606721 1394.5571873 463.28635027 1389.72543888 468.67114258 1384.67480469 C471.45107358 1382.06853609 474.26620579 1379.52452341 477.15527344 1377.03930664 C481.33140998 1373.39159505 485.27770105 1369.55464063 489.19140625 1365.62890625 C490.24822853 1364.57351906 490.24822853 1364.57351906 491.32640076 1363.49681091 C492.80403367 1362.01985352 494.28042457 1360.54165258 495.75561523 1359.06225586 C497.99416481 1356.81834915 500.23800473 1354.57983296 502.48242188 1352.34179688 C503.92740404 1350.89615382 505.37207592 1349.45020055 506.81640625 1348.00390625 C507.47701553 1347.3453212 508.13762482 1346.68673615 508.81825256 1346.00819397 C512.67645229 1342.13082193 516.35478008 1338.14560832 519.92469788 1334.00091553 C522.00129182 1331.59746796 524.15732263 1329.27046136 526.3125 1326.9375 C531.23374205 1321.53523429 535.8514906 1315.93694329 540.4375 1310.25 C541.41157866 1309.06673451 542.38691 1307.88449947 543.36328125 1306.703125 C553.46788333 1294.44176604 563.23036929 128" fill="#FFFFFF" />
  </g>
</svg>
