<?xml version="1.0" encoding="UTF-8"?>
<svg version="1.1" xmlns="http://www.w3.org/2000/svg" width="1181" height="1181">
<path d="M0 0 C389.73 0 779.46 0 1181 0 C1181 389.73 1181 779.46 1181 1181 C791.27 1181 401.54 1181 0 1181 C0 791.27 0 401.54 0 0 Z " fill="#004208" transform="translate(0,0)"/>
<path d="M0 0 C3.8079423 0.01127206 7.6156013 0.00468575 11.42353344 -0.00686646 C26.68910855 -0.04625449 41.90867698 0.16746809 57.14746094 1.12011719 C58.36077087 1.19341248 59.57408081 1.26670776 60.82415771 1.34222412 C72.82555536 2.17731143 84.52029518 4.31084928 96.30688477 6.67382812 C99.26386754 7.24183345 102.2230003 7.7211694 105.19824219 8.18261719 C112.497626 9.37776804 119.6381763 11.18671703 126.79980469 13.01074219 C127.50328033 13.18881409 128.20675598 13.36688599 128.93154907 13.550354 C156.76404977 20.60104956 184.20919753 28.7823213 210.50585938 40.43994141 C212.26692578 41.21857177 214.03706074 41.97659596 215.80761719 42.73339844 C216.98066406 43.23742187 218.15371094 43.74144531 219.36230469 44.26074219 C220.02077393 44.54328857 220.67924316 44.82583496 221.35766602 45.11694336 C227.99823605 48.01293842 234.45657331 51.25128382 240.92480469 54.51074219 C242.02888672 55.06503906 243.13296875 55.61933594 244.27050781 56.19042969 C246.96870184 57.54536695 249.66593738 58.90217437 252.36230469 60.26074219 C251.12989818 63.95796172 249.67005517 64.84160314 246.61230469 67.19824219 C245.32066406 68.20177734 245.32066406 68.20177734 244.00292969 69.22558594 C243.13152344 69.8971875 242.26011719 70.56878906 241.36230469 71.26074219 C219.77397675 88.00532939 206.68628196 115.57619515 199.36230469 141.26074219 C195.00994866 140.69027209 191.48550052 139.61522428 187.50292969 137.78417969 C186.39651123 137.28168701 185.29009277 136.77919434 184.15014648 136.26147461 C182.98265869 135.72498291 181.8151709 135.18849121 180.61230469 134.63574219 C156.83445687 123.87640017 132.69916172 115.55564501 107.36230469 109.26074219 C106.49686035 109.04144043 105.63141602 108.82213867 104.73974609 108.59619141 C94.716231 106.06178012 84.86570318 103.84498891 74.58496094 102.65917969 C71.7108629 102.30383666 68.94091384 101.80911553 66.11230469 101.19824219 C42.42316949 96.17311582 16.49679196 97.96721886 -7.63769531 98.26074219 C-8.75031738 98.27331055 -9.86293945 98.28587891 -11.00927734 98.29882812 C-31.67121421 98.61135626 -52.42837102 100.88478695 -72.63769531 105.26074219 C-73.89710938 105.53273438 -75.15652344 105.80472656 -76.45410156 106.08496094 C-94.60363317 110.26749116 -112.4521797 115.36176181 -130.07519531 121.38574219 C-131.27692383 121.79324707 -132.47865234 122.20075195 -133.71679688 122.62060547 C-139.86734303 124.76026361 -145.71244595 127.10342041 -151.46923828 130.15527344 C-153.71191679 131.29857993 -155.97654646 132.23279255 -158.32519531 133.13574219 C-200.93097936 149.86196962 -239.40709632 177.65169211 -272.78613281 208.63183594 C-275.47471059 211.11048367 -278.20602574 213.53154904 -280.95019531 215.94824219 C-284.55267688 219.17785544 -287.7545588 222.54426043 -290.86816406 226.24121094 C-292.81846245 228.46704817 -294.89116687 230.51033975 -297.01269531 232.57324219 C-301.97523826 237.48548909 -306.30989792 242.78881445 -310.63769531 248.26074219 C-311.52414599 249.36772774 -312.41087449 250.47449086 -313.29785156 251.58105469 C-319.70208321 259.60929341 -325.77929339 267.82719261 -331.63769531 276.26074219 C-332.21438965 277.07986084 -332.21438965 277.07986084 -332.80273438 277.91552734 C-345.00138669 295.2957712 -355.62317063 314.04211932 -364.63769531 333.26074219 C-365.01168457 334.0420752 -365.38567383 334.8234082 -365.77099609 335.62841797 C-376.12256051 357.30135561 -385.3503205 380.08691209 -390.63769531 403.57324219 C-390.96987963 405.03313953 -391.3032409 406.49276949 -391.63769531 407.95214844 C-391.80269531 408.67289551 -391.96769531 409.39364258 -392.13769531 410.13623047 C-392.612272 412.15271794 -393.11624765 414.15826224 -393.63769531 416.16308594 C-398.87703268 436.32225509 -401.80044173 456.51634211 -403.63769531 477.26074219 C-403.7334082 478.33380615 -403.82912109 479.40687012 -403.92773438 480.51245117 C-407.75602047 528.04236322 -403.30553808 577.51364762 -389.63769531 623.26074219 C-389.32968994 624.2986792 -389.02168457 625.33661621 -388.7043457 626.40600586 C-373.35622105 677.7086611 -350.20519987 726.88537242 -316.07714844 768.50195312 C-314.48623499 770.44580327 -312.91373732 772.40386881 -311.34082031 774.36230469 C-303.50764865 784.05946989 -295.32033151 793.31756177 -286.63769531 802.26074219 C-285.91469238 803.00565918 -285.19168945 803.75057617 -284.44677734 804.51806641 C-272.85363727 816.41846262 -272.85363727 816.41846262 -260.24707031 827.20996094 C-257.82302129 829.11508929 -255.49305344 831.10290894 -253.16918945 833.12817383 C-231.37569831 852.0309982 -206.2509458 867.2248962 -180.76269531 880.57324219 C-179.82409668 881.06493896 -178.88549805 881.55663574 -177.91845703 882.06323242 C-169.51925916 886.41220959 -161.01977182 890.48839821 -152.13769531 893.76074219 C-148.24662409 895.19429474 -144.50846353 896.7910636 -140.76660156 898.56933594 C-133.40969921 901.93994865 -125.77260097 904.36466501 -118.07519531 906.82324219 C-117.32334961 907.06541473 -116.57150391 907.30758728 -115.796875 907.55709839 C-104.84184968 911.07783558 -93.97000584 914.17759687 -82.63769531 916.26074219 C-77.69055917 917.23295213 -72.74972183 918.23474789 -67.81347656 919.26074219 C-58.50800062 921.18523004 -49.22796477 923.0292502 -39.76953125 924.03417969 C-38.27968982 924.19251373 -36.79079698 924.35991891 -35.30273438 924.53417969 C-19.90544667 926.29183382 -4.55324065 926.44916466 10.92480469 926.44824219 C11.9137674 926.44914856 12.9027301 926.45005493 13.92166138 926.45098877 C30.33999334 926.4492873 46.42470141 925.95850345 62.67480469 923.38574219 C63.83778076 923.20575684 65.00075684 923.02577148 66.19897461 922.84033203 C68.52202976 922.480325 70.84471701 922.11793421 73.16699219 921.75292969 C75.95853946 921.32293585 78.7512198 920.92281228 81.54980469 920.54199219 C92.77887598 918.97828837 103.4930356 916.25400171 114.37792969 913.11083984 C117.54262295 912.20937862 120.71619511 911.3469061 123.89355469 910.49121094 C137.98961926 906.73904244 137.98961926 906.73904244 151.57714844 901.49511719 C154.98991486 899.98258677 158.48120408 898.7227657 161.98730469 897.44824219 C205.40839013 881.41752569 246.24306708 856.02922792 280.93310547 825.51513672 C282.10908815 824.48298793 283.29493104 823.46208426 284.48339844 822.44433594 C295.81735981 812.71906585 306.43765668 802.41271308 316.36230469 791.26074219 C318.11176956 789.36441503 319.8617581 787.46857083 321.61230469 785.57324219 C325.78631806 780.96811006 329.62159015 776.21969709 333.36230469 771.26074219 C334.37427098 769.94222382 335.38740218 768.62459913 336.40136719 767.30761719 C337.53432234 765.8337685 338.66713089 764.35980711 339.79980469 762.88574219 C340.36900635 762.14582031 340.93820801 761.40589844 341.5246582 760.64355469 C343.96515927 757.45665092 346.38851786 754.2719544 348.66308594 750.96386719 C356.25566485 739.94778074 365.07965117 733.83994087 378.36230469 731.26074219 C388.20955444 730.24183229 397.55151314 730.44116391 406.36230469 735.26074219 C407.69455078 735.87949219 407.69455078 735.87949219 409.05371094 736.51074219 C419.48545996 741.61780151 427.7310161 749.53013391 432.36230469 760.26074219 C432.88953125 761.45183594 433.41675781 762.64292969 433.95996094 763.87011719 C435.78562386 768.84289723 435.89837635 773.63069506 435.86230469 778.88574219 C435.85658447 779.85487549 435.85086426 780.82400879 435.8449707 781.82250977 C435.37454597 800.859664 424.44648606 814.20777792 412.90429688 828.35107422 C410.93660937 830.78794117 409.02148006 833.26315501 407.10644531 835.74145508 C402.58156871 841.58877689 397.89186533 847.15490302 392.84667969 852.56542969 C390.98637716 854.58368243 389.20276901 856.62209909 387.42480469 858.70996094 C382.37201941 864.50284185 376.9088846 869.90017992 371.47558594 875.33276367 C369.62501501 877.18551687 367.78260392 879.04612925 365.94042969 880.90722656 C359.78320123 887.09294971 353.5885591 892.97288318 346.71923828 898.37133789 C344.28779949 900.32046828 342.01183548 902.381695 339.73730469 904.51074219 C332.68101576 910.92961674 324.99666064 916.5561962 317.36230469 922.26074219 C316.70504395 922.75396973 316.0477832 923.24719727 315.37060547 923.75537109 C302.16358998 933.64797584 288.5536706 942.74017012 274.32763672 951.10009766 C272.27871915 952.31010438 270.23998629 953.53608417 268.20214844 954.76464844 C259.43508494 960.02508755 250.54673393 964.82427062 241.35058594 969.28857422 C238.65976112 970.6042501 235.98777904 971.95610577 233.31469727 973.30737305 C230.6482744 974.65173092 227.97415868 975.98014404 225.29736328 977.30371094 C224.03865051 977.92623858 222.78109573 978.55111499 221.52490234 979.17871094 C213.06969046 983.38222469 204.49833156 986.7391752 195.55688477 989.77441406 C191.05553971 991.30406857 186.65780078 992.91280413 182.29980469 994.82324219 C170.19519699 1000.00123005 157.41435304 1003.36322547 144.64038086 1006.43212891 C139.39968209 1007.70399889 134.2935119 1009.19347637 129.17480469 1010.88574219 C121.96387174 1013.21313663 114.7269268 1014.68886748 107.23828125 1015.82324219 C105.09840658 1016.14876472 102.95994038 1016.48357304 100.82226562 1016.82324219 C90.68573754 1018.43261405 80.53464012 1019.89656221 70.36230469 1021.26074219 C69.1111084 1021.4317041 67.85991211 1021.60266602 66.57080078 1021.77880859 C17.51963388 1028.18025509 -34.7164726 1026.37687226 -83.20605469 1016.73242188 C-86.95230451 1016.00573968 -90.71487287 1015.37140184 -94.4765625 1014.72998047 C-96.63769531 1014.26074219 -96.63769531 1014.26074219 -97.63769531 1013.26074219 C-99.06855746 1012.97519052 -100.50844954 1012.73496392 -101.95019531 1012.51074219 C-107.70471322 1011.50995646 -113.34785576 1010.17117791 -119.01269531 1008.76074219 C-119.88063721 1008.54708008 -120.7485791 1008.33341797 -121.64282227 1008.11328125 C-125.78716565 1007.07026473 -129.68446089 1005.90091392 -133.63769531 1004.26074219 C-135.25657351 1003.86013843 -136.8825157 1003.48754387 -138.51269531 1003.13574219 C-151.86786872 999.88808215 -165.09888806 994.9985545 -177.69628906 989.53417969 C-180.7310363 988.22033161 -183.78737481 986.97173501 -186.85131836 985.72802734 C-199.68128561 980.50815045 -212.15354028 974.6407712 -224.49121094 968.35253906 C-225.92010184 967.62574196 -227.35109732 966.90306748 -228.78417969 966.18457031 C-255.75071522 952.64094772 -280.9483729 935.90762312 -304.63769531 917.26074219 C-305.39566406 916.68453125 -306.15363281 916.10832031 -306.93457031 915.51464844 C-316.86472155 907.95831073 -326.21773852 899.63112845 -335.43847656 891.23339844 C-337.50758819 889.37744573 -339.62243851 887.5961096 -341.76269531 885.82324219 C-342.71144531 884.97761719 -343.66019531 884.13199219 -344.63769531 883.26074219 C-344.63769531 882.60074219 -344.63769531 881.94074219 -344.63769531 881.26074219 C-345.1778125 881.04675781 -345.71792969 880.83277344 -346.27441406 880.61230469 C-349.48813171 878.77437691 -351.88686378 876.26404481 -354.45019531 873.63574219 C-355.25457031 872.82061157 -355.25457031 872.82061157 -356.07519531 871.98901367 C-359.42027465 868.5755951 -362.63888757 865.08589872 -365.73535156 861.44433594 C-367.77075955 859.10800521 -369.87318987 856.84630626 -371.98925781 854.58325195 C-376.71541957 849.52460006 -381.27202319 844.41965572 -385.53222656 838.95605469 C-387.11387141 836.93131453 -388.71295807 834.93072126 -390.33691406 832.94042969 C-415.49412266 802.03431602 -436.94270358 767.67716653 -453.61035156 731.47998047 C-454.57394563 729.39845241 -455.5545432 727.32619736 -456.54394531 725.25683594 C-460.31159817 717.3533093 -463.70891833 709.36530038 -466.87329102 701.20507812 C-467.42649995 699.79793792 -467.99168843 698.39548786 -468.56420898 696.99609375 C-471.16536635 690.62265681 -473.42497705 684.17392425 -475.57519531 677.63574219 C-475.92437012 676.57742188 -476.27354492 675.51910156 -476.63330078 674.42871094 C-477.32636244 672.32226532 -478.0175041 670.21518682 -478.70654297 668.10742188 C-479.26547585 666.39867585 -479.82684673 664.69072028 -480.39306641 662.984375 C-489.80933502 634.60372753 -495.25858829 605.06303458 -499.45019531 575.51074219 C-499.60804001 574.42001404 -499.60804001 574.42001404 -499.76907349 573.30725098 C-502.53274778 554.02636222 -502.80241821 534.8288908 -502.76806641 515.37255859 C-502.76270348 511.7662333 -502.7680468 508.1600325 -502.77441406 504.55371094 C-502.78136531 482.92810306 -502.31273946 461.4153275 -498.13378906 440.13183594 C-497.51034592 436.5237201 -497.11323179 432.89732336 -496.70019531 429.26074219 C-496.05707538 423.7341511 -495.01665929 418.54614955 -493.41894531 413.21777344 C-492.44162814 409.51862795 -491.82203698 405.78165386 -491.20019531 402.01074219 C-489.96119141 394.64879155 -488.27687323 387.50957912 -486.22216797 380.32617188 C-485.59610844 378.11378106 -484.99702826 375.89504033 -484.39941406 373.67480469 C-481.50826744 363.08125839 -478.18443904 352.65129225 -474.63769531 342.26074219 C-474.23470215 341.06884277 -473.83170898 339.87694336 -473.41650391 338.64892578 C-471.01575302 331.71460117 -468.25525039 325.10201959 -465.10644531 318.47607422 C-463.64376832 315.27403698 -462.37109466 312.04940687 -461.13769531 308.75292969 C-458.63988308 302.12457923 -455.72510192 295.75805516 -452.63769531 289.38574219 C-452.07518066 288.22244385 -451.51266602 287.05914551 -450.93310547 285.8605957 C-445.31285023 274.37868144 -439.13304672 263.26698591 -432.63769531 252.26074219 C-432.17685547 251.47441406 -431.71601563 250.68808594 -431.24121094 249.87792969 C-417.76038729 226.97036951 -402.46687748 204.99166729 -385.05273438 184.89794922 C-383.55964341 183.17043576 -382.07809791 181.43352935 -380.59863281 179.69433594 C-379.57010724 178.48720221 -378.5414642 177.28016856 -377.51269531 176.07324219 C-377.05830078 175.53940918 -376.60390625 175.00557617 -376.13574219 174.45556641 C-368.47431906 165.50730595 -360.48813331 156.94689632 -352.14428711 148.63696289 C-350.56995377 147.06801858 -349.00107942 145.4937566 -347.43261719 143.91894531 C-342.00554213 138.48834632 -336.47836475 133.24811483 -330.63769531 128.26074219 C-329.09288271 126.84750669 -327.55074207 125.4313381 -326.01269531 124.01074219 C-320.36441579 118.91604595 -314.41176804 114.25811036 -308.39160156 109.61621094 C-306.7384118 108.33857876 -305.09322395 107.0514006 -303.45019531 105.76074219 C-283.09361218 89.88260734 -261.50358648 76.23110357 -239.00537109 63.60546875 C-236.95702026 62.44210348 -234.93204643 61.25071677 -232.91503906 60.03417969 C-223.59782213 54.47978441 -213.81207364 49.99750775 -203.95019531 45.51074219 C-203.24286255 45.18818451 -202.53552979 44.86562683 -201.8067627 44.53329468 C-193.76307392 40.87600207 -185.69758827 37.40738934 -177.4206543 34.30712891 C-174.00150077 33.02153438 -170.62372952 31.64549352 -167.24707031 30.25292969 C-133.73855037 17.51166612 -98.4787152 9.34391723 -63.07519531 4.26074219 C-61.95306641 4.09574219 -60.8309375 3.93074219 -59.67480469 3.76074219 C-55.99912105 3.23240136 -52.31963482 2.74348227 -48.63769531 2.26074219 C-47.34009277 2.07543945 -46.04249023 1.89013672 -44.70556641 1.69921875 C-29.86896651 -0.25896686 -14.93476048 -0.04454317 0 0 Z " fill="#FDFEFD" transform="translate(580.6376953125,93.7392578125)"/>
<path d="M0 0 C16.05980059 12.81869225 29.02125704 29.04505276 35.8125 48.625 C36.16183594 49.58664063 36.51117187 50.54828125 36.87109375 51.5390625 C46.94599579 81.28401139 42.86792579 112.68537282 29.8125 140.625 C27.75633532 144.54694374 25.45557014 148.0763361 22.8125 151.625 C22.42223633 152.16286133 22.03197266 152.70072266 21.62988281 153.25488281 C12.45059957 165.84221162 2.33228852 175.70489694 -11.1875 183.625 C-12.08597656 184.20894531 -12.98445312 184.79289063 -13.91015625 185.39453125 C-31.28149233 196.36212858 -51.38972097 199.84593765 -71.625 199.9375 C-73.42106689 199.94595947 -73.42106689 199.94595947 -75.25341797 199.95458984 C-81.85139163 199.90016786 -87.82581116 199.35778424 -94.1875 197.625 C-95.25097656 197.39039063 -96.31445312 197.15578125 -97.41015625 196.9140625 C-102.78154304 195.65802983 -107.56310493 194.22858075 -112.41015625 191.58203125 C-114.3898852 190.47402882 -114.3898852 190.47402882 -117.4375 189.3125 C-143.14077609 178.38860766 -163.31651499 155.2080841 -173.96923828 129.75732422 C-184.63967657 102.34894352 -184.67371209 70.19478103 -172.8828125 43.1171875 C-168.01764939 33.0953999 -162.51875705 24.07767304 -155.1875 15.625 C-154.52363281 14.81675781 -153.85976563 14.00851563 -153.17578125 13.17578125 C-115.0686875 -31.69338459 -45.49483074 -35.29593626 0 0 Z " fill="#FEFEFE" transform="translate(984.1875,179.375)"/>
<path d="M0 0 C3.61020271 -0.10416788 7.2200322 -0.17338675 10.83135986 -0.22427368 C12.28704366 -0.24807678 13.74261957 -0.27999338 15.19793701 -0.32040405 C17.25369704 -0.37451857 19.30739017 -0.39547245 21.36376953 -0.40869141 C23.16358276 -0.43842041 23.16358276 -0.43842041 24.99975586 -0.46875 C29.13646991 0.28098433 30.54297804 1.9624333 33.21923828 5.11474609 C33.79673828 5.65099609 34.37423828 6.18724609 34.96923828 6.73974609 C37.72213802 9.7679358 37.48385487 13.49398215 37.44580078 17.38818359 C37.0001019 22.75193905 35.52576466 27.90804445 34.21923828 33.11474609 C33.74727828 35.34800609 33.28744586 37.58265573 32.84423828 39.82177734 C32.21923828 42.11474609 32.21923828 42.11474609 30.75048828 45.80224609 C29.05558862 50.23953044 28.35214715 54.6122045 27.71923828 59.30224609 C26.38980237 68.35482186 24.50644275 77.15120339 22.21142578 86.00927734 C20.06544194 94.33951503 18.33156453 102.567397 17.21923828 111.11474609 C16.55923828 111.11474609 15.89923828 111.11474609 15.21923828 111.11474609 C15.24888672 112.34708984 15.27853516 113.57943359 15.30908203 114.84912109 C15.11174193 128.67272497 15.11174193 128.67272497 10.48486328 133.55615234 C7.40046862 136.22711533 4.0400281 138.45384783 0.58789062 140.61962891 C-1.96165375 142.22892696 -4.43808975 143.92292841 -6.91748047 145.63818359 C-16.95692849 152.53512795 -27.21987891 159.0484286 -37.78076172 165.11474609 C-38.48265625 165.52176758 -39.18455078 165.92878906 -39.90771484 166.34814453 C-49.70041834 172.00700775 -59.5615884 176.97256479 -69.99023438 181.33984375 C-72.63293244 182.48354755 -75.19811819 183.77968858 -77.78076172 185.05224609 C-86.86652239 189.29835535 -96.50325596 192.15471161 -106.03417969 195.22509766 C-108.50485665 196.02537738 -110.96797977 196.84453451 -113.42919922 197.67333984 C-141.66335116 207.09629865 -170.99083258 211.97069865 -200.68066406 213.65087891 C-201.46261642 213.69596588 -202.24456879 213.74105286 -203.05021667 213.7875061 C-204.96034531 213.89751112 -206.87054631 214.00625834 -208.78076172 214.11474609 C-208.87412337 193.04442472 -208.94470081 171.97413735 -208.98801041 150.90365124 C-209.00865259 141.12067445 -209.03680474 131.33782604 -209.08251953 121.55493164 C-209.1223367 113.03007035 -209.14818248 104.50530201 -209.1571157 95.98035032 C-209.16233916 91.46467512 -209.17465031 86.94926588 -209.20368195 82.43367577 C-209.23077031 78.18605213 -209.23922015 73.93880478 -209.23319244 69.69110298 C-209.23429565 68.1297743 -209.24228884 66.56843342 -209.25758362 65.00717926 C-209.2774099 62.87953829 -209.27272958 60.75332841 -209.26177979 58.62565613 C-209.26546696 57.4337778 -209.26915413 56.24189947 -209.27295303 55.01390362 C-208.78076172 52.11474609 -208.78076172 52.11474609 -206.97848129 50.29936695 C-203.77041291 48.5701451 -200.4005842 47.37206195 -196.96826172 46.17724609 C-192.78549265 44.72015001 -188.83203276 43.24070014 -184.99951172 40.99755859 C-180.95570701 38.63212914 -176.961629 37.57387605 -172.40576172 36.61474609 C-171.86951172 36.44974609 -171.33326172 36.28474609 -170.78076172 36.11474609 C-170.28576172 35.12474609 -170.28576172 35.12474609 -169.78076172 34.11474609 C-167.69311523 33.17260742 -167.69311523 33.17260742 -164.90966797 32.19677734 C-163.87406738 31.83310059 -162.8384668 31.46942383 -161.77148438 31.09472656 C-160.6401709 30.70945801 -159.50885742 30.32418945 -158.34326172 29.92724609 C-157.17327637 29.52650879 -156.00329102 29.12577148 -154.79785156 28.71289062 C-143.67752482 24.97037273 -132.44105561 21.84593772 -121.07275391 18.95751953 C-117.79460657 18.11829047 -114.52595752 17.24803309 -111.25732422 16.37255859 C-81.86699507 8.6158202 -52.09243672 3.39517208 -21.78076172 1.11474609 C-20.54084473 1.01105713 -20.54084473 1.01105713 -19.27587891 0.90527344 C-12.85273397 0.37024664 -6.44087753 0.19548059 0 0 Z " fill="#FDFDFD" transform="translate(807.78076171875,779.88525390625)"/>
<path d="M0 0 C1.06476563 0.00346436 2.12953125 0.00692871 3.2265625 0.01049805 C36.49600918 0.4319545 69.84524958 4.52430149 102.5625 10.3125 C102.5625 10.9725 102.5625 11.6325 102.5625 12.3125 C103.19414062 12.33828125 103.82578125 12.3640625 104.4765625 12.390625 C109.88778211 12.73369944 114.83773493 13.55244311 120.0390625 15.1015625 C121.26222168 15.46056641 122.48538086 15.81957031 123.74560547 16.18945312 C125.63496826 16.74536133 125.63496826 16.74536133 127.5625 17.3125 C132.47453373 18.70423205 137.39329999 20.07134414 142.3125 21.4375 C144.16681641 21.95763672 144.16681641 21.95763672 146.05859375 22.48828125 C152.17584454 24.18498949 158.23714357 25.75865414 164.49755859 26.828125 C167.3894556 27.50647965 169.76421173 28.82000253 172.35546875 30.234375 C176.00621883 32.01775026 179.86411868 33.15652585 183.73046875 34.3828125 C186.3929711 35.25684775 188.97333649 36.2427542 191.5625 37.3125 C191.5625 37.9725 191.5625 38.6325 191.5625 39.3125 C192.738125 39.68375 193.91375 40.055 195.125 40.4375 C199.53074843 41.91073759 203.86617249 43.547188 208.1875 45.25 C208.80826416 45.49057129 209.42902832 45.73114258 210.06860352 45.97900391 C214.56473379 47.77174589 218.27595884 49.86304791 222.5625 52.3125 C222.5625 105.4425 222.5625 158.5725 222.5625 213.3125 C203.16113352 213.3125 184.68606699 212.3296455 165.83203125 207.8359375 C163.53038488 207.30509307 161.2237162 206.83152924 158.90625 206.375 C136.48250681 201.94886337 113.9768225 195.58462272 93.34375 185.6328125 C90.89958359 184.47252002 88.46468793 183.4606776 85.9375 182.5 C62.25044712 173.16293877 40.30110496 159.78190434 19.58203125 145.09765625 C17.05350401 143.31013387 14.50554851 141.66848166 11.82421875 140.12109375 C4.77673556 135.8040951 2.0006145 132.18966466 -0.0559082 124.22021484 C-0.84264395 120.59825011 -1.51861361 116.97355034 -2.07128906 113.30859375 C-2.35348728 111.24846639 -2.35348728 111.24846639 -3.4375 109.3125 C-3.71577115 107.75478648 -3.95891944 106.19077686 -4.1875 104.625 C-5.23433137 98.0962883 -6.59893303 91.64869723 -8 85.1875 C-8.22204102 84.15536377 -8.44408203 83.12322754 -8.67285156 82.05981445 C-8.88522461 81.08874756 -9.09759766 80.11768066 -9.31640625 79.1171875 C-9.5079126 78.24046387 -9.69941895 77.36374023 -9.89672852 76.46044922 C-10.36339224 74.28128871 -10.36339224 74.28128871 -11.4375 72.3125 C-11.70020931 70.85350264 -11.92219458 69.3870258 -12.12109375 67.91796875 C-12.24419922 67.04462891 -12.36730469 66.17128906 -12.49414062 65.27148438 C-12.74639411 63.43585514 -12.99642422 61.59991889 -13.24414062 59.76367188 C-13.36853516 58.88646484 -13.49292969 58.00925781 -13.62109375 57.10546875 C-13.72993896 56.3064917 -13.83878418 55.50751465 -13.95092773 54.68432617 C-14.48978683 52.05762468 -15.43180536 49.79578672 -16.4375 47.3125 C-17.61397253 42.96922633 -18.57393507 38.57691748 -19.5625 34.1875 C-19.83964844 33.01445313 -20.11679687 31.84140625 -20.40234375 30.6328125 C-24.40985341 12.8655283 -24.40985341 12.8655283 -21.19580078 7.07568359 C-15.74589983 -0.11710838 -8.37550075 -0.04560781 0 0 Z " fill="#FDFEFD" transform="translate(345.4375,779.6875)"/>
<path d="M0 0 C9.27409839 9.27409839 7.52574242 28.64065712 7.5625 40.75 C7.57089905 41.58526215 7.5792981 42.42052429 7.58795166 43.28109741 C7.669316 54.54702403 6.4402224 64.25255404 3 75 C2.740979 75.92828613 2.48195801 76.85657227 2.21508789 77.81298828 C-6.03327222 107.3651532 -26.54457936 131.66016239 -52 148 C-52.96550781 148.62777344 -53.93101562 149.25554687 -54.92578125 149.90234375 C-62.87061684 154.81545588 -71.14506745 158.17045272 -80 161 C-80.74266113 161.24556641 -81.48532227 161.49113281 -82.25048828 161.74414062 C-102.79179023 168.30973492 -128.1890279 168.86491032 -149 163 C-149.63679687 162.83371094 -150.27359375 162.66742187 -150.9296875 162.49609375 C-181.40990211 154.49058991 -208.77136948 134.03788647 -225 107 C-239.41287982 81.48006732 -239.41287982 81.48006732 -240 69 C-238.8125 67.390625 -238.8125 67.390625 -237 66.25 C-231.90639429 62.44758775 -229.13330679 57.44412054 -226 52 C-225.608125 51.34128906 -225.21625 50.68257812 -224.8125 50.00390625 C-218.23682809 38.0598147 -217.3018256 25.31050904 -217 12 C-214.54895211 13.21008913 -212.12592119 14.46036891 -209.70703125 15.734375 C-194.36478415 23.7359102 -179.32429933 28.51528658 -162.30737305 31.56103516 C-160.01780849 31.99661203 -157.75731838 32.50763856 -155.48828125 33.0390625 C-119.35585319 41.17848313 -74.86087861 37.16568133 -40 25 C-39.35240723 24.77586426 -38.70481445 24.55172852 -38.03759766 24.32080078 C-23.10596841 19.03787478 -11.1674068 11.1674068 0 0 Z " fill="#FDFEFD" transform="translate(710,469)"/>
<path d="M0 0 C1.35766983 -0.0146228 1.35766983 -0.0146228 2.74276733 -0.02954102 C22.18508443 -0.19557808 40.92191216 -0.15099739 59.9609375 4.23828125 C60.86650391 4.43615234 61.77207031 4.63402344 62.70507812 4.83789062 C73.17649826 7.14414068 83.05811068 10.10548033 92.9609375 14.23828125 C93.9509375 14.56828125 94.9409375 14.89828125 95.9609375 15.23828125 C95.9609375 15.89828125 95.9609375 16.55828125 95.9609375 17.23828125 C96.67636719 17.33367188 97.39179688 17.4290625 98.12890625 17.52734375 C101.41027913 18.35108149 103.48955878 19.7036452 106.2734375 21.61328125 C109.57774113 23.80132619 112.56607164 25.6328886 116.3359375 26.86328125 C120.40152827 28.40540189 121.94377607 30.16748139 124.9609375 33.23828125 C126.87405106 34.70808022 128.81271295 36.1451242 130.7734375 37.55078125 C135.27355226 40.87216338 139.2489994 44.30830278 143.10546875 48.34765625 C144.95278919 50.22997855 146.88064353 51.91659006 148.8984375 53.61328125 C156.49859729 60.18719637 162.61796445 67.8553726 168.33203125 76.0859375 C169.78345701 78.33426027 169.78345701 78.33426027 171.9609375 79.23828125 C172.69736262 80.87850084 173.42644905 82.52269535 174.10546875 84.1875 C175.01386327 86.36515808 175.99433832 88.49004687 177.0234375 90.61328125 C177.50490234 91.61488281 177.50490234 91.61488281 177.99609375 92.63671875 C178.87452662 94.41814383 178.87452662 94.41814383 180.9609375 95.23828125 C181.2909375 93.58828125 181.6209375 91.93828125 181.9609375 90.23828125 C182.6209375 90.23828125 183.2809375 90.23828125 183.9609375 90.23828125 C184.0846875 89.43390625 184.2084375 88.62953125 184.3359375 87.80078125 C184.5421875 86.95515625 184.7484375 86.10953125 184.9609375 85.23828125 C185.6209375 84.90828125 186.2809375 84.57828125 186.9609375 84.23828125 C187.63407448 82.5742173 188.29958726 80.90706466 188.9609375 79.23828125 C201.90036138 59.00218977 219.50712906 43.02197805 238.9609375 29.23828125 C239.9921875 28.47515625 241.0234375 27.71203125 242.0859375 26.92578125 C245.86323201 24.7086736 249.77297768 23.46674947 253.9609375 22.23828125 C253.9609375 21.57828125 253.9609375 20.91828125 253.9609375 20.23828125 C265.67318482 14.09726509 277.27997901 9.54245329 290.0234375 6.11328125 C290.90169189 5.87158203 291.77994629 5.62988281 292.68481445 5.38085938 C309.46106821 1.02997022 326.04986491 -0.23807304 343.33056641 -0.09790039 C346.5135947 -0.07382039 349.69580707 -0.07743079 352.87890625 -0.08398438 C354.91667166 -0.07842069 356.95443358 -0.07131916 358.9921875 -0.0625 C359.9368689 -0.06341141 360.88155029 -0.06432281 361.8548584 -0.06526184 C362.73097778 -0.05572983 363.60709717 -0.04619781 364.50976562 -0.03637695 C365.65838074 -0.02946587 365.65838074 -0.02946587 366.8302002 -0.02241516 C371.00350514 0.48819007 373.53229181 2.41201954 376.17431641 5.58984375 C380.0266281 10.98468645 379.72483256 16.18852149 379.546875 22.61328125 C379.53838531 23.77835205 379.52989563 24.94342285 379.52114868 26.14379883 C379.48772397 29.84292425 379.41245736 33.53982142 379.3359375 37.23828125 C379.30582412 39.75517672 379.27845074 42.27210656 379.25390625 44.7890625 C379.18796823 50.93955458 379.08772684 57.08875869 378.9609375 63.23828125 C370.00819864 64.46228271 361.06459962 65.61289785 352.06640625 66.44921875 C348.00565644 66.86607448 344.69693835 67.63888219 340.9609375 69.23828125 C338.76483298 69.75202292 336.55362659 70.20259809 334.3359375 70.61328125 C333.67368164 70.73630615 333.01142578 70.85933105 332.32910156 70.98608398 C323.95931072 72.49260925 315.52826122 73.64425872 307.10302734 74.79248047 C305.97848145 74.95119629 304.85393555 75.10991211 303.6953125 75.2734375 C302.68694336 75.41144775 301.67857422 75.54945801 300.63964844 75.69165039 C298.06878824 76.2162727 296.24913792 76.99666728 293.9609375 78.23828125 C291.93211868 78.78809665 289.88811486 79.28334073 287.8359375 79.73828125 C286.67835938 79.99738281 285.52078125 80.25648438 284.328125 80.5234375 C281.54394465 81.11451059 278.75917094 81.65741997 275.9609375 82.17578125 C270.84208181 83.15438601 265.97187863 84.76907205 261.0390625 86.43359375 C257.88004326 87.25942873 255.21048353 87.38421895 251.9609375 87.23828125 C251.9609375 87.89828125 251.9609375 88.55828125 251.9609375 89.23828125 C251.06955078 89.49351562 251.06955078 89.49351562 250.16015625 89.75390625 C244.6803867 91.35607837 239.31351461 93.14840536 233.9609375 95.1328125 C230.55531732 96.38774806 227.13368626 97.59339212 223.7109375 98.80078125 C220.00944474 100.11434495 216.35776842 101.44427352 212.7734375 103.05078125 C209.9609375 104.23828125 209.9609375 104.23828125 206.9609375 104.23828125 C206.6309375 105.22828125 206.3009375 106.21828125 205.9609375 107.23828125 C203.8515625 108.1171875 203.8515625 108.1171875 201.2109375 108.80078125 C198.38339994 109.5671609 195.74369217 110.32610383 193.0234375 111.42578125 C190.9609375 112.23828125 190.9609375 112.23828125 187.9609375 112.23828125 C187.9609375 112.89828125 187.9609375 113.55828125 187.9609375 114.23828125 C183.95878509 116.7396265 180.96677262 117.76087113 176.23828125 116.953125 C171.46800752 115.45576635 167.24983811 112.75999596 162.9609375 110.23828125 C158.11526507 107.62161814 153.19930231 105.87963556 147.9609375 104.23828125 C147.9609375 103.57828125 147.9609375 102.91828125 147.9609375 102.23828125 C146.7440625 102.19703125 145.5271875 102.15578125 144.2734375 102.11328125 C140.00911559 101.65157898 136.80090149 100.36039277 132.96484375 98.46484375 C126.31451599 95.31703132 119.60099072 92.93244534 112.5859375 90.73828125 C111.38799561 90.35736328 110.19005371 89.97644531 108.95581055 89.58398438 C99.9771985 86.76893345 90.93735399 84.26734624 81.80517578 82.00195312 C80.91427246 81.78087891 80.02336914 81.55980469 79.10546875 81.33203125 C78.32534424 81.14318359 77.54521973 80.95433594 76.74145508 80.75976562 C74.9609375 80.23828125 74.9609375 80.23828125 73.9609375 79.23828125 C70.38359665 78.79017224 66.80756539 78.41669479 63.21875 78.07617188 C62.4659375 77.99689453 61.713125 77.91761719 60.9375 77.8359375 C60.24736816 77.76898682 59.55723633 77.70203613 58.84619141 77.63305664 C56.9609375 77.23828125 56.9609375 77.23828125 53.9609375 75.23828125 C51.47869834 74.52736318 49.04176686 73.91415704 46.5234375 73.36328125 C45.76297119 73.19401123 45.00250488 73.02474121 44.21899414 72.8503418 C35.25246153 70.94951744 26.17554702 69.751777 17.09399414 68.54541016 C15.92473389 68.38862793 14.75547363 68.2318457 13.55078125 68.0703125 C12.49753662 67.93343018 11.44429199 67.79654785 10.35913086 67.65551758 C7.9609375 67.23828125 7.9609375 67.23828125 6.9609375 66.23828125 C4.96477245 66.00946587 2.96139557 65.84296437 0.95703125 65.703125 C-0.25791016 65.61611328 -1.47285156 65.52910156 -2.72460938 65.43945312 C-4.00400391 65.35244141 -5.28339844 65.26542969 -6.6015625 65.17578125 C-7.88482422 65.08490234 -9.16808594 64.99402344 -10.49023438 64.90039062 C-13.67291265 64.67559179 -16.85583108 64.45508307 -20.0390625 64.23828125 C-20.11538627 57.12165224 -20.16777719 50.00512956 -20.20385742 42.88818359 C-20.21890529 40.46919815 -20.23934838 38.05023982 -20.26538086 35.63134766 C-20.3019395 32.14609062 -20.3188294 28.66119565 -20.33203125 25.17578125 C-20.35525703 23.56437256 -20.35525703 23.56437256 -20.37895203 21.92041016 C-20.3803475 15.63593396 -19.77594255 10.92988216 -17.0390625 5.23828125 C-11.78335178 0.1139633 -7.02921073 0.06135415 0 0 Z " fill="#FCFDFC" transform="translate(404.0390625,687.76171875)"/>
<path d="M0 0 C9.17042125 3.31127517 18.36876929 6.498912 27.625 9.5625 C28.90330056 9.98711921 30.18153764 10.41192956 31.4597168 10.83691406 C34.90506084 11.98217158 38.35092456 13.12585654 41.79693604 14.269104 C48.0289018 16.33664217 54.2603321 18.40577691 60.49066162 20.47824097 C62.73570589 21.2244743 64.9813593 21.96885186 67.22705078 22.71313477 C80.74728655 27.20385652 94.17253673 31.94894642 107.55859375 36.82421875 C110.15030308 37.70969492 112.72704329 38.52591529 115.3515625 39.30078125 C122.17255305 41.3250296 128.9319968 43.53344589 135.6887207 45.76123047 C137.1992232 46.25746112 138.71096899 46.74992175 140.22387695 47.23876953 C142.43213843 47.95261339 144.63626375 48.67810203 146.83984375 49.40625 C147.51482407 49.62196655 148.18980438 49.83768311 148.88523865 50.05993652 C154.9303566 52.08387572 154.9303566 52.08387572 157 55 C157.4375 57.9375 157.4375 57.9375 157 61 C153.88325526 65.05019355 150.00784632 66.37820291 145.3046875 67.91015625 C144.55720245 68.16373398 143.80971741 68.41731171 143.0395813 68.67857361 C140.65496115 69.48433786 138.26518316 70.27341148 135.875 71.0625 C134.29131335 71.59595746 132.70797597 72.13045299 131.125 72.66601562 C124.14531474 75.01725681 117.15601496 77.28756143 110.08642578 79.35522461 C107.38093275 80.1913125 104.7583319 81.20047746 102.1171875 82.21875 C96.86401982 84.15718826 91.47670189 85.727296 86.1328125 87.39453125 C85.20210937 87.68714844 84.27140625 87.97976563 83.3125 88.28125 C82.48363281 88.53970703 81.65476562 88.79816406 80.80078125 89.06445312 C77.88941647 90.03693829 75.02755806 91.10637921 72.15713501 92.19238281 C57.5365435 97.6662363 42.6641869 102.45086666 27.8125 107.25 C24.97213873 108.17020239 22.13199093 109.0910606 19.29191589 110.012146 C17.54905765 110.57713845 15.80600113 111.1415198 14.06269836 111.70513916 C8.69855633 113.44094134 3.34617853 115.20967629 -2 117 C-11.25505481 120.08501827 -20.03812144 116.2044141 -28.69140625 112.87890625 C-39.24312907 108.86175289 -49.92371722 105.37133409 -60.75390625 102.19140625 C-61.59824219 101.94261719 -62.44257812 101.69382812 -63.3125 101.4375 C-64.03050781 101.22996094 -64.74851562 101.02242188 -65.48828125 100.80859375 C-68.26964502 99.91319359 -70.99176855 98.88518843 -73.72338867 97.84936523 C-77.95815768 96.26944444 -82.23153439 94.79839755 -86.5 93.3125 C-87.4178125 92.99216797 -88.335625 92.67183594 -89.28125 92.34179688 C-91.5205479 91.56037521 -93.76013459 90.77979314 -96 90 C-96 89.34 -96 88.68 -96 88 C-95.46375 87.78666016 -94.9275 87.57332031 -94.375 87.35351562 C-86.23466575 84.10675402 -78.11772919 80.80272837 -70 77.5 C-67.20846698 76.36425439 -64.41683227 75.22875982 -61.625 74.09375 C-60.62271866 73.68627533 -60.62271866 73.68627533 -59.60018921 73.27056885 C-55.09697377 71.44143307 -50.58648752 69.63133501 -46.07128906 67.83203125 C-44.23696413 67.09518786 -42.41078732 66.3381311 -40.5859375 65.578125 C-34.71745679 63.15077288 -28.85373124 60.92201125 -22.8046875 58.9765625 C-21.72396973 58.62819336 -20.64325195 58.27982422 -19.52978516 57.92089844 C-17.36934808 57.23195156 -15.20498133 56.55519031 -13.03662109 55.89160156 C-11.54122803 55.4154541 -11.54122803 55.4154541 -10.015625 54.9296875 C-9.12133789 54.65366699 -8.22705078 54.37764648 -7.30566406 54.09326172 C-4.59789254 52.80933532 -3.52698902 51.55147952 -2 49 C-1.64131841 46.87027179 -1.64131841 46.87027179 -1.8125 44.75 C-1.874375 43.5125 -1.93625 42.275 -2 41 C-2.99 40.67 -3.98 40.34 -5 40 C-5 39.34 -5 38.68 -5 38 C-15.18241474 39.50232349 -24.44471981 43.32638872 -34 47 C-35.05541992 47.40379883 -36.11083984 47.80759766 -37.19824219 48.22363281 C-43.75121408 50.7308071 -50.29938192 53.25015644 -56.84277344 55.78222656 C-58.97968901 56.60645598 -61.11842221 57.4259858 -63.25878906 58.24121094 C-74.71915803 62.61177737 -86.00091488 67.34570675 -97.1875 72.375 C-98.20263672 72.8184375 -99.21777344 73.261875 -100.26367188 73.71875 C-111.58238678 78.82713197 -122.20897365 86.16158502 -127.12109375 98 C-129.49726023 106.11064824 -131.93941415 116.52907587 -131 125 C-129.34614767 126.34919532 -127.678298 127.68133728 -126 129 C-123.88661705 133.42804048 -123.07201019 138.15079833 -124 143 C-125.11517247 145.17017376 -126.35936739 147.08176499 -127.80859375 149.04296875 C-130.49377671 153.45371191 -129.95084802 157.212958 -129.0625 162.125 C-126.21177396 180.74125056 -124.75520127 203.89252156 -135.75 220.125 C-139.63933964 224.96118263 -145.29968413 231.31452409 -151.81469727 232.26464844 C-158.56788104 232.55685713 -163.11724006 230.50021575 -168.9375 227.25 C-169.78634766 226.8065625 -170.63519531 226.363125 -171.50976562 225.90625 C-178.27258318 222.24776477 -178.27258318 222.24776477 -180 218 C-179.31035156 217.29617188 -178.62070312 216.59234375 -177.91015625 215.8671875 C-167.98212264 205.52178575 -160.3577744 194.38447731 -155 181 C-154.64292969 180.154375 -154.28585937 179.30875 -153.91796875 178.4375 C-150.77157767 170.51849324 -149.38585993 162.36765428 -148 154 C-148.92425781 153.58041016 -148.92425781 153.58041016 -149.8671875 153.15234375 C-153.64736521 151.10994004 -155.66106389 147.50840417 -158 144 C-159.07202353 137.64685001 -158.06454943 132.98431845 -154.484375 127.69140625 C-153 126 -153 126 -150.890625 124.59375 C-148.378234 122.47586668 -148.36350507 121.16815133 -148 117.9375 C-145.80478351 102.32496892 -142.22744927 89.5984844 -134 76 C-135.00772461 75.87923096 -136.01544922 75.75846191 -137.05371094 75.6340332 C-142.96134973 74.68487842 -148.51922278 72.75424865 -154.18066406 70.87182617 C-156.2541184 70.18613805 -158.33362802 69.52158319 -160.4140625 68.85742188 C-161.74000475 68.42054778 -163.06554109 67.9824394 -164.390625 67.54296875 C-166.1854834 66.9555188 -166.1854834 66.9555188 -168.01660156 66.35620117 C-171.15910521 64.92767353 -172.38029888 64.00959911 -174 61 C-174.3125 57.5625 -174.3125 57.5625 -173 54 C-165.91772982 48.86565644 -156.57794738 46.71722465 -148.31533813 44.12207031 C-145.05674703 43.09828462 -141.80419292 42.05590876 -138.5511322 41.01470947 C-136.87210614 40.47748151 -135.19279309 39.94114966 -133.51319885 39.40570068 C-125.63547368 36.89277641 -117.77952037 34.31659513 -109.93386841 31.7053833 C-107.86885209 31.01873782 -105.80250735 30.33620551 -103.73608398 29.65380859 C-98.39578521 27.88080214 -93.08981469 26.0860369 -87.88671875 23.9375 C-83.27134672 22.04244658 -78.57390624 20.61222662 -73.79785156 19.17871094 C-69.31221358 17.78653684 -64.87140839 16.28335658 -60.4296875 14.7578125 C-59.14847015 14.31801056 -59.14847015 14.31801056 -57.84136963 13.86932373 C-54.30549114 12.65350399 -50.77083196 11.43416481 -47.23632812 10.21435547 C-41.16488705 8.12094967 -35.08769004 6.04570556 -29 4 C-28.11579376 3.70261932 -27.23158752 3.40523865 -26.32058716 3.09884644 C-23.72646496 2.23275634 -21.12798521 1.3814441 -18.52734375 0.53515625 C-17.74628265 0.27384918 -16.96522156 0.01254211 -16.16049194 -0.25668335 C-10.14477618 -2.18614954 -5.95410551 -2.39031236 0 0 Z " fill="#FCFCFC" transform="translate(604,297)"/>
<path d="M0 0 C1.11123219 0.75448231 2.21913289 1.51388729 3.32421875 2.27734375 C15.10859059 10.10634212 27.52555608 15.9132229 41.01171875 20.21484375 C41.67816406 20.43269531 42.34460938 20.65054688 43.03125 20.875 C45.16554114 21.56795167 47.30569937 22.23853 49.44921875 22.90234375 C50.08013428 23.10496826 50.7110498 23.30759277 51.36108398 23.51635742 C63.01237435 26.99649985 75.08710796 27.5320417 87.15600586 27.4206543 C89.20894763 27.40225656 91.26143681 27.40014683 93.31445312 27.40039062 C104.17324661 27.37331762 114.91345067 27.25706749 125.38671875 24.15234375 C126.13219971 23.93682861 126.87768066 23.72131348 127.64575195 23.49926758 C143.56675406 18.76988478 159.92261019 13.45634481 173.76220703 4.02148438 C176.64094388 2.14065713 178.34084973 1.11538625 181.8046875 1.62890625 C182.86300781 2.15226563 183.92132812 2.675625 185.01171875 3.21484375 C185.75631348 3.5819043 186.5009082 3.94896484 187.26806641 4.32714844 C204.35612317 12.96463482 220.8001269 23.29242438 235.01171875 36.21484375 C235.01171875 36.54484375 235.01171875 36.87484375 235.01171875 37.21484375 C233.71105469 37.28960938 232.41039062 37.364375 231.0703125 37.44140625 C208.81565487 38.93552799 185.51209223 42.0421699 165.01171875 51.21484375 C161.99817445 52.51752861 160.31536589 53.21484375 157.01171875 53.21484375 C156.68171875 54.20484375 156.35171875 55.19484375 156.01171875 56.21484375 C153.9296875 57.13671875 153.9296875 57.13671875 151.19921875 57.96484375 C135.3872258 63.39132462 116.96150584 75.76637998 105.375 87.93359375 C104.01171875 89.21484375 104.01171875 89.21484375 102.01171875 89.21484375 C102.01171875 89.87484375 102.01171875 90.53484375 102.01171875 91.21484375 C100.578125 92.58984375 100.578125 92.58984375 98.57421875 94.21484375 C92.71582406 99.18560288 87.28110959 104.81075748 83.01171875 111.21484375 C78.86462046 109.63406746 76.42480389 106.58657846 73.57421875 103.33984375 C64.78015447 93.60830671 55.54335057 84.90352219 44.68017578 77.51098633 C42.2571666 75.85944912 40.07262358 74.27864881 38.04296875 72.15234375 C35.38754648 69.61947943 32.36707164 68.23462201 29.07421875 66.71484375 C25.60061384 65.10144083 22.40228399 63.52741236 19.390625 61.1171875 C16.89704334 59.12314108 14.90634279 58.25534139 11.88671875 57.27734375 C8.00739866 55.95484826 4.33424312 54.48251987 0.63671875 52.71484375 C-5.38045682 49.90218426 -11.61028914 48.02988443 -17.98828125 46.21484375 C-17.98828125 45.55484375 -17.98828125 44.89484375 -17.98828125 44.21484375 C-19.90253906 44.02728516 -19.90253906 44.02728516 -21.85546875 43.8359375 C-26.10104766 43.36466665 -30.24830228 42.63304378 -34.43701172 41.80566406 C-46.89831824 39.34568711 -59.32485436 38.07801998 -71.98828125 37.21484375 C-68.60759646 32.40181619 -64.47888297 29.37680163 -59.73828125 26.02734375 C-58.54162842 25.17523315 -58.54162842 25.17523315 -57.32080078 24.3059082 C-44.77334601 15.45260901 -31.92767752 7.67719879 -17.98828125 1.21484375 C-16.47814453 0.51294922 -16.47814453 0.51294922 -14.9375 -0.203125 C-8.95288701 -2.80089034 -5.87230435 -3.50803018 0 0 Z " fill="#FCFCFC" transform="translate(501.98828125,625.78515625)"/>
<path d="M0 0 C0.10201175 6.7951159 0.1717207 13.59003192 0.21972656 20.38574219 C0.23975417 22.69408549 0.26698439 25.00237862 0.30175781 27.31054688 C0.35066594 30.64205357 0.37305811 33.97288538 0.390625 37.3046875 C0.41127014 38.32488983 0.43191528 39.34509216 0.45318604 40.39620972 C0.45565578 48.40946128 -1.19358958 55.15994139 -5.97265625 61.69921875 C-34.9548511 89.2729331 -81.5604289 91.08247919 -119.44493103 90.22851562 C-146.61259675 89.46024229 -183.57891242 84.74821945 -203.875 64.5 C-204.57625 63.675 -205.2775 62.85 -206 62 C-205.02440179 59.52145319 -204.03024244 57.06666581 -202.9296875 54.640625 C-199.25667943 46.31514004 -198.84150575 39.65332408 -202.015625 31.07421875 C-203.89621573 27.11154543 -206.41053882 24.02283425 -210.13671875 21.625 C-212 20 -212 20 -212.4609375 17.8359375 C-212.2578 12.01881814 -211.5214166 6.62380778 -210 1 C-199.87653101 3.16049643 -190.30916805 6.62146283 -180.578125 10.09033203 C-176.52490969 11.52047221 -172.45287013 12.89200165 -168.375 14.25 C-167.62806885 14.4989502 -166.8811377 14.74790039 -166.11157227 15.00439453 C-161.51521702 16.52565419 -156.90525708 17.96973109 -152.23828125 19.26171875 C-150 20 -150 20 -146.78662109 21.39111328 C-141.40010079 23.71445283 -135.86210559 25.60445752 -130.3137207 27.4987793 C-128.9859032 27.95574809 -127.66063931 28.42020951 -126.33813477 28.89233398 C-110.98564591 34.36785752 -100.50249041 33.40617213 -85.41876221 27.87786865 C-81.38310305 26.41316135 -77.31235334 25.05266349 -73.24609375 23.67578125 C-71.61365121 23.11735746 -69.98148964 22.55811165 -68.34960938 21.99804688 C-67.54160889 21.72081787 -66.7336084 21.44358887 -65.90112305 21.15795898 C-65.08812744 20.87895752 -64.27513184 20.59995605 -63.4375 20.3125 C-60.94061726 19.45610004 -58.44365608 18.59993045 -55.94654846 17.7441864 C-54.41478154 17.21921583 -52.88314353 16.69386888 -51.35166931 16.16804504 C-46.97468217 14.66743998 -42.58985069 13.1923579 -38.1990509 11.73268127 C-35.47196062 10.82406748 -32.7487888 9.90412716 -30.02590942 8.98298645 C-27.14732691 8.00989941 -24.26702944 7.04193242 -21.38671875 6.07397461 C-19.86763271 5.5625293 -18.34908425 5.04948471 -16.83105469 4.53491211 C-14.62053661 3.78598176 -12.40815084 3.04282343 -10.1953125 2.30078125 C-9.51719513 2.06958084 -8.83907776 1.83838043 -8.14041138 1.60017395 C-5.29183753 0.65030858 -3.02621205 0 0 0 Z " fill="#FCFCFC" transform="translate(702,399)"/>
<path d="M0 0 C3.18319671 0.0163852 6.36517641 -0.00011002 9.54833984 -0.01904297 C11.58610304 -0.01706522 13.62386549 -0.0132313 15.66162109 -0.00732422 C16.60630249 -0.01339691 17.55098389 -0.0194696 18.52429199 -0.02572632 C25.03421482 0.04453918 25.03421482 0.04453918 28.25341797 1.91601562 C28.7078125 2.40279785 29.16220703 2.88958008 29.63037109 3.39111328 C27.96425204 3.43383428 26.29654224 3.4317516 24.63037109 3.39111328 C24.13537109 2.89611328 24.13537109 2.89611328 23.63037109 2.39111328 C20.56941116 2.26460357 17.53241805 2.20233521 14.47021484 2.18798828 C13.53295059 2.18228821 12.59568634 2.17658813 11.63002014 2.17071533 C9.63169489 2.16123739 7.6333538 2.15472034 5.63500977 2.15087891 C2.63251458 2.1413191 -0.36925212 2.11038659 -3.37158203 2.07861328 C-13.58986733 2.02363057 -23.15480529 2.47227561 -33.13891602 4.7253418 C-37.32839453 5.5886916 -41.1122217 5.61918867 -45.36962891 5.39111328 C-33.4509051 -1.98009745 -13.44324055 -0.08257779 0 0 Z " fill="#9EB7A1" transform="translate(747.36962890625,687.60888671875)"/>
<path d="M0 0 C0.66 0.33 1.32 0.66 2 1 C-3.71490522 7.34489477 -9.49838299 13.61174319 -15.5 19.6875 C-16.00370117 20.2040918 -16.50740234 20.72068359 -17.02636719 21.25292969 C-19.34525358 23.57809607 -20.83697805 24.94565935 -24 26 C-19.37847912 15.57195289 -8.32816831 7.49148988 0 0 Z " fill="#BFD0C1" transform="translate(628,728)"/>
<path d="M0 0 C1.32102974 0.0001133 1.32102974 0.0001133 2.66874695 0.00022888 C3.61570938 0.00539017 4.56267181 0.01055145 5.53833008 0.01586914 C6.51071121 0.01728409 7.48309235 0.01869904 8.48493958 0.02015686 C11.59261137 0.02575722 14.70021129 0.03830977 17.80786133 0.05102539 C19.91398008 0.05604034 22.02009996 0.06060326 24.1262207 0.06469727 C29.29096197 0.07572677 34.45564946 0.09299164 39.62036133 0.11352539 C39.62036133 0.44352539 39.62036133 0.77352539 39.62036133 1.11352539 C38.3596582 1.10716064 37.09895508 1.1007959 35.80004883 1.09423828 C31.09563127 1.07974264 26.39242605 1.11125731 21.68823242 1.15625 C19.65735003 1.169341 17.62634832 1.17016882 15.59545898 1.15820312 C12.66508097 1.1431129 9.73797228 1.17299395 6.80786133 1.21118164 C5.45893799 1.18979881 5.45893799 1.18979881 4.08276367 1.16798401 C-3.17684679 1.33246912 -6.38876208 4.09112474 -11.37963867 9.11352539 C-12.36963867 9.60852539 -12.36963867 9.60852539 -13.37963867 10.11352539 C-13.08504859 6.57844436 -12.63082454 5.35149095 -10.00463867 2.86352539 C-6.55468909 0.563559 -4.05185702 -0.01160991 0 0 Z " fill="#8FAC93" transform="translate(399.379638671875,687.886474609375)"/>
<path d="M0 0 C0 0.33 0 0.66 0 1 C-8.73014527 2.69786274 -17.47508288 4.29981787 -26.25 5.75 C-27.46393433 5.95943237 -27.46393433 5.95943237 -28.70239258 6.1730957 C-29.46575928 6.29644287 -30.22912598 6.41979004 -31.015625 6.546875 C-31.68883789 6.65870117 -32.36205078 6.77052734 -33.05566406 6.88574219 C-35.23199003 7.01363276 -36.9226357 6.62680094 -39 6 C-37.69675781 5.70996094 -37.69675781 5.70996094 -36.3671875 5.4140625 C-35.21476563 5.15367187 -34.06234375 4.89328125 -32.875 4.625 C-31.73804688 4.36976563 -30.60109375 4.11453125 -29.4296875 3.8515625 C-26.21505069 3.05339527 -23.13435801 2.06399706 -20 1 C-13.38338638 -0.35032931 -6.72065596 -0.09095625 0 0 Z " fill="#93AF97" transform="translate(745,756)"/>
<path d="M0 0 C-3.50011557 2.0263827 -6.62609513 3.20532377 -10.578125 3.87109375 C-17.00329211 5.09482326 -22.93142238 7.37650617 -29.02734375 9.69726562 C-29.87167969 10.00728516 -30.71601562 10.31730469 -31.5859375 10.63671875 C-32.3392334 10.92248779 -33.0925293 11.20825684 -33.86865234 11.50268555 C-36.28210279 12.06582398 -37.67767365 11.78824926 -40 11 C-35.87622075 9.55898181 -31.75075972 8.12283712 -27.625 6.6875 C-25.89056641 6.08131836 -25.89056641 6.08131836 -24.12109375 5.46289062 C-20.75261935 4.2924885 -17.37897648 3.1397059 -14 2 C-13.02901367 1.67080566 -12.05802734 1.34161133 -11.05761719 1.00244141 C-10.18008789 0.71933105 -9.30255859 0.4362207 -8.3984375 0.14453125 C-7.63966309 -0.10321045 -6.88088867 -0.35095215 -6.09912109 -0.60620117 C-3.7393636 -1.04889585 -2.25934849 -0.74853309 0 0 Z " fill="#8AA88E" transform="translate(678,803)"/>
<path d="M0 0 C0.66 0.33 1.32 0.66 2 1 C1.67 1.66 1.34 2.32 1 3 C0.34 3 -0.32 3 -1 3 C-1.24878906 3.57363281 -1.49757813 4.14726563 -1.75390625 4.73828125 C-3.18189867 7.33015465 -4.83947906 9.10510677 -6.9375 11.1875 C-7.97197266 12.22970703 -7.97197266 12.22970703 -9.02734375 13.29296875 C-11 15 -11 15 -14 16 C-13.67 15.01 -13.34 14.02 -13 13 C-12.34 13 -11.68 13 -11 13 C-10.7421875 12.41734375 -10.484375 11.8346875 -10.21875 11.234375 C-8.90165983 8.8197097 -7.44911616 7.18259823 -5.5 5.25 C-4.8915625 4.63640625 -4.283125 4.0228125 -3.65625 3.390625 C-2 2 -2 2 0 2 C0 1.34 0 0.68 0 0 Z " fill="#3E7044" transform="translate(604,715)"/>
<path d="M0 0 C0 0.66 0 1.32 0 2 C-8.25 2 -16.5 2 -25 2 C-25 1.67 -25 1.34 -25 1 C-21.20917496 0.63640478 -17.41726551 0.28572343 -13.625 -0.0625 C-12.54476562 -0.16626953 -11.46453125 -0.27003906 -10.3515625 -0.37695312 C-8.8046875 -0.51713867 -8.8046875 -0.51713867 -7.2265625 -0.66015625 C-6.27346191 -0.74918213 -5.32036133 -0.83820801 -4.33837891 -0.92993164 C-2 -1 -2 -1 0 0 Z " fill="#376B3D" transform="translate(739,663)"/>
<path d="M0 0 C7.92 0.66 15.84 1.32 24 2 C24 2.33 24 2.66 24 3 C15.75 3 7.5 3 -1 3 C-0.67 2.01 -0.34 1.02 0 0 Z " fill="#326739" transform="translate(429,662)"/>
<path d="M0 0 C0.66 0.33 1.32 0.66 2 1 C0.71937515 2.7074998 -0.61767557 4.37373596 -2 6 C-2.66 6 -3.32 6 -4 6 C-4 11.28 -4 16.56 -4 22 C-6.56613724 16.86772553 -6.9559044 12.65576769 -6 7 C-4.35766367 4.22139609 -2.42593434 2.1154725 0 0 Z " fill="#B6C8B8" transform="translate(329,782)"/>
<path d="M0 0 C5.03769764 -0.17076941 8.36810097 -0.08435456 13 2 C15.65282682 2.73661983 18.3203898 3.36416029 21 4 C17.97031651 4.91787677 15.57728581 5.04344865 12.4375 4.6875 C11.67308594 4.60886719 10.90867187 4.53023437 10.12109375 4.44921875 C8 4 8 4 5 2 C3.34450469 1.61500109 1.6777567 1.27206865 0 1 C0 0.67 0 0.34 0 0 Z " fill="#82A285" transform="translate(453,761)"/>
<path d="M0 0 C0.33 0 0.66 0 1 0 C1.34548714 6.33393082 0.29342747 11.10261508 -2 17 C-3.44715727 13.12813552 -2.5441918 10.1767672 -1.5625 6.25 C-1.27503906 5.07953125 -0.98757813 3.9090625 -0.69140625 2.703125 C-0.46324219 1.81109375 -0.23507812 0.9190625 0 0 Z " fill="#6B9170" transform="translate(838,823)"/>
<path d="M0 0 C1.32 0.33 2.64 0.66 4 1 C1.69 3.31 -0.62 5.62 -3 8 C-3.33 6.68 -3.66 5.36 -4 4 C-2.3125 1.6875 -2.3125 1.6875 0 0 Z " fill="#C0D0C2" transform="translate(390,690)"/>
<path d="M0 0 C0.33 0.66 0.66 1.32 1 2 C1.66 2 2.32 2 3 2 C3 4.97 3 7.94 3 11 C2.67 11 2.34 11 2 11 C0.80712589 7.12315913 0 4.08378077 0 0 Z " fill="#9DB6A0" transform="translate(342,885)"/>
</svg>
